<svg version="1.1" xmlns="http://www.w3.org/2000/svg" xmlns:xlink="http://www.w3.org/1999/xlink" width="40.125" height="40.375" viewBox="0,0,40.125,40.375"><g transform="translate(-219.9375,-159.8125)"><g data-paper-data="{&quot;isPaintingLayer&quot;:true}" fill-rule="nonzero" stroke-linecap="butt" stroke-linejoin="miter" stroke-miterlimit="10" stroke-dasharray="" stroke-dashoffset="0" style="mix-blend-mode: normal"><path d="M228.05566,192.03618c-6.63912,-6.6775 -6.97051,-17.25679 0,-24.26759c6.97051,-7.0108 17.16683,-7.00153 24.12812,0c6.96129,7.00153 6.99392,17.23325 0,24.26759c-6.99392,7.03434 -17.489,6.6775 -24.12812,0z" fill="#cc2424" stroke="#777777" stroke-width="2"/><path d="M247.95588,180c0,4.42259 -3.56197,8.00781 -7.95588,8.00781c-4.39391,0 -7.95588,-3.58522 -7.95588,-8.00781c0,-4.42259 3.56197,-8.00781 7.95588,-8.00781c4.39391,0 7.95588,3.58522 7.95588,8.00781z" fill="none" stroke="#292929" stroke-width="4.5"/><path d="M219.9375,200.1875v-40.375h40.125v40.375z" fill="none" stroke="none" stroke-width="0"/></g></g></svg>